<svg  viewBox="0 0 16 16" fill="white" xmlns="http://www.w3.org/2000/svg">
<path fill-rule="evenodd" clip-rule="evenodd" d="M2.19248 2.20109C2.45154 1.93546 2.87437 1.93263 3.13689 2.19476L8 7.05066L12.8631 2.19476C13.1256 1.93263 13.5485 1.93546 13.8075 2.20109C14.0666 2.46672 14.0638 2.89455 13.8013 3.15668L8.95075 8L13.8013 12.8433C14.0638 13.1054 14.0666 13.5333 13.8075 13.7989C13.5485 14.0645 13.1256 14.0674 12.8631 13.8052L8 8.94934L3.13689 13.8052C2.87437 14.0674 2.45154 14.0645 2.19248 13.7989C1.93342 13.5333 1.93622 13.1054 2.19874 12.8433L7.04925 8L2.19874 3.15668C1.93622 2.89455 1.93342 2.46672 2.19248 2.20109Z"/>
</svg>
