<svg viewBox="0 0 18 18" fill="white" xmlns="http://www.w3.org/2000/svg">
<path fill-rule="evenodd" clip-rule="evenodd" d="M8.99927 0C13.9698 0 17.9993 4.02944 17.9993 9C17.9993 13.9706 13.9698 18 8.99927 18C4.0287 18 -0.000732422 13.9706 -0.000732422 9C-0.000732422 4.02944 4.0287 0 8.99927 0ZM9.74927 5C9.74927 4.58579 9.41348 4.25 8.99927 4.25C8.58505 4.25 8.24927 4.58579 8.24927 5V11.1893L6.0296 8.96967C5.7367 8.67678 5.26183 8.67678 4.96894 8.96967C4.67604 9.26256 4.67604 9.73744 4.96894 10.0303L8.46894 13.5303C8.76183 13.8232 9.2367 13.8232 9.5296 13.5303L13.0296 10.0303C13.3225 9.73744 13.3225 9.26256 13.0296 8.96967C12.7367 8.67678 12.2618 8.67678 11.9689 8.96967L9.74927 11.1893V5Z"/>
</svg>
