<svg width="11" height="12" viewBox="0 0 11 12" fill="white" xmlns="http://www.w3.org/2000/svg">
<path d="M5.49463 11.5C4.74213 11.5 4.034 11.3562 3.37023 11.0687C2.70647 10.7848 2.1208 10.389 1.61322 9.88141C1.10918 9.37383 0.713409 8.78816 0.425897 8.12439C0.138385 7.46063 -0.00537109 6.7525 -0.00537109 6C-0.00537109 5.2475 0.138385 4.53937 0.425897 3.8756C0.713409 3.21184 1.10918 2.62794 1.61322 2.12391C2.1208 1.61633 2.7047 1.21878 3.36491 0.931268C4.02867 0.643756 4.7368 0.5 5.48931 0.5C6.24536 0.5 6.95526 0.643756 7.61902 0.931268C8.28279 1.21878 8.86846 1.61633 9.37604 2.12391C9.88363 2.62794 10.2812 3.21184 10.5687 3.8756C10.8562 4.53937 11 5.2475 11 6C11 6.7525 10.8562 7.46063 10.5687 8.12439C10.2812 8.78816 9.88363 9.37383 9.37604 9.88141C8.86846 10.389 8.28279 10.7848 7.61902 11.0687C6.95526 11.3562 6.24713 11.5 5.49463 11.5ZM5.49463 10.4138C6.1087 10.4138 6.68195 10.3003 7.21438 10.0731C7.74681 9.84592 8.21535 9.53001 8.61999 9.12536C9.02464 8.72072 9.34055 8.25218 9.56772 7.71975C9.79489 7.18732 9.90847 6.61407 9.90847 6C9.90847 5.38948 9.79489 4.81801 9.56772 4.28558C9.34055 3.7496 9.02464 3.27928 8.61999 2.87464C8.21535 2.46999 7.74503 2.15408 7.20905 1.92691C6.67662 1.69974 6.10337 1.58616 5.48931 1.58616C4.87879 1.58616 4.30554 1.69974 3.76956 1.92691C3.23713 2.15408 2.77036 2.46999 2.36927 2.87464C1.96817 3.27928 1.65404 3.7496 1.42687 4.28558C1.1997 4.81801 1.08611 5.38948 1.08611 6C1.08611 6.61407 1.1997 7.18732 1.42687 7.71975C1.65404 8.25218 1.96817 8.72072 2.36927 9.12536C2.77391 9.53001 3.24245 9.84592 3.77488 10.0731C4.31086 10.3003 4.88411 10.4138 5.49463 10.4138ZM5.37749 7.05954C5.04029 7.05954 4.87169 6.90868 4.87169 6.60697C4.87169 6.59632 4.87169 6.58567 4.87169 6.57502C4.87169 6.56438 4.87169 6.5555 4.87169 6.5484C4.87169 6.30348 4.93203 6.10471 5.05271 5.95208C5.17695 5.79945 5.3349 5.65747 5.52658 5.52614C5.75375 5.36996 5.92235 5.23685 6.03238 5.12681C6.14597 5.01678 6.20276 4.87835 6.20276 4.71152C6.20276 4.53049 6.13532 4.38319 6.00044 4.2696C5.8691 4.15247 5.69518 4.0939 5.47866 4.0939C5.37217 4.0939 5.27278 4.11165 5.1805 4.14714C5.09176 4.18264 5.00834 4.23411 4.93025 4.30155C4.85571 4.36544 4.78827 4.4453 4.72793 4.54114L4.64274 4.65295C4.59305 4.72039 4.53271 4.77364 4.46172 4.81268C4.39427 4.85173 4.31263 4.87125 4.2168 4.87125C4.10676 4.87125 4.00915 4.83398 3.92396 4.75944C3.83877 4.6849 3.79618 4.58374 3.79618 4.45595C3.79618 4.40626 3.79973 4.36012 3.80683 4.31752C3.81748 4.27138 3.83167 4.22523 3.84942 4.17909C3.93106 3.93062 4.11919 3.71588 4.4138 3.53485C4.71196 3.35382 5.08998 3.26331 5.54787 3.26331C5.86023 3.26331 6.14774 3.31833 6.41041 3.42836C6.67662 3.5384 6.8896 3.69635 7.04932 3.90223C7.20905 4.1081 7.28892 4.35834 7.28892 4.65295C7.28892 4.96531 7.20905 5.212 7.04932 5.39303C6.89315 5.57406 6.6855 5.75153 6.42638 5.92546C6.2489 6.03904 6.11402 6.14731 6.02173 6.25024C5.92945 6.35318 5.87975 6.47386 5.87265 6.61229C5.87265 6.61939 5.87265 6.63004 5.87265 6.64424C5.87265 6.65489 5.87088 6.66554 5.86733 6.67619C5.86023 6.78267 5.81231 6.87318 5.72357 6.94772C5.63839 7.02226 5.52303 7.05954 5.37749 7.05954ZM5.36685 8.69409C5.19647 8.69409 5.04916 8.63908 4.92493 8.52904C4.80425 8.41546 4.7439 8.27525 4.7439 8.10842C4.7439 7.94159 4.80425 7.80316 4.92493 7.69313C5.04561 7.57954 5.19292 7.52275 5.36685 7.52275C5.54077 7.52275 5.68808 7.57777 5.80876 7.6878C5.92945 7.79784 5.98979 7.93804 5.98979 8.10842C5.98979 8.2788 5.92945 8.41901 5.80876 8.52904C5.68808 8.63908 5.54077 8.69409 5.36685 8.69409Z"/>
</svg>
