<svg width="20" height="20" viewBox="0 0 20 20" fill="white" xmlns="http://www.w3.org/2000/svg">
<path d="M7.64256 3.5437C8.37145 1.50237 8.73589 0.481698 9.26604 0.189714C9.72532 -0.0632379 10.2747 -0.0632379 10.734 0.189714C11.2641 0.481698 11.6286 1.50237 12.3574 3.5437L12.7087 4.52753C12.9194 5.1176 13.0248 5.41263 13.2064 5.63393C13.3669 5.82951 13.5692 5.98292 13.7971 6.08176C14.0549 6.1936 14.3564 6.20698 14.9593 6.23372L15.9646 6.27831C18.0504 6.37084 19.0933 6.4171 19.5233 6.85298C19.8958 7.23059 20.0655 7.77576 19.9769 8.3097C19.8746 8.92604 19.0569 9.60311 17.4216 10.9572L16.6334 11.6099C16.1607 12.0013 15.9243 12.197 15.7788 12.4456C15.6501 12.6653 15.5728 12.9136 15.5531 13.1702C15.5309 13.4607 15.6118 13.764 15.7738 14.3705L16.0438 15.3819C16.604 17.4805 16.8841 18.5297 16.6197 19.0911C16.3906 19.5774 15.9462 19.9144 15.4321 19.9914C14.8387 20.0803 13.9689 19.4781 12.2293 18.2737L11.3909 17.6932C10.8881 17.345 10.6367 17.171 10.3651 17.1033C10.1251 17.0435 9.87493 17.0435 9.63491 17.1033C9.36332 17.171 9.1119 17.345 8.60906 17.6932L7.77065 18.2737C6.03106 19.4781 5.16127 20.0803 4.56789 19.9914C4.05383 19.9144 3.60939 19.5774 3.38032 19.0911C3.1159 18.5297 3.39601 17.4805 3.95624 15.3819L4.22624 14.3705C4.38818 13.764 4.46915 13.4607 4.44688 13.1702C4.4272 12.9136 4.34991 12.6653 4.22124 12.4456C4.07566 12.197 3.8393 12.0013 3.36659 11.6099L2.57842 10.9572C0.943072 9.60311 0.125395 8.92604 0.0230895 8.3097C-0.0655404 7.77576 0.10422 7.23059 0.4767 6.85298C0.906656 6.4171 1.94957 6.37084 4.0354 6.27831L5.04068 6.23372C5.6436 6.20698 5.94507 6.1936 6.20289 6.08176C6.43075 5.98292 6.63312 5.82951 6.79362 5.63393C6.97523 5.41263 7.08058 5.1176 7.29127 4.52753L7.64256 3.5437Z"/>
</svg>
