<svg width="20" height="20" viewBox="0 0 20 20" fill="white" xmlns="http://www.w3.org/2000/svg">
<path fill-rule="evenodd" clip-rule="evenodd" d="M10.0001 1.9001C7.9381 1.9001 6.26776 3.57013 6.26776 5.62867C6.26776 7.68721 7.9381 9.35724 10.0001 9.35724C12.0621 9.35724 13.7325 7.68721 13.7325 5.62867C13.7325 3.57013 12.0621 1.9001 10.0001 1.9001ZM4.46776 5.62867C4.46776 2.57463 6.94537 0.100098 10.0001 0.100098C13.0549 0.100098 15.5325 2.57463 15.5325 5.62867C15.5325 8.68271 13.0549 11.1572 10.0001 11.1572C6.94537 11.1572 4.46776 8.68271 4.46776 5.62867ZM2.11969 14.2242C3.15423 13.2701 4.41709 12.9572 5.36774 12.9572H14.6324C15.5831 12.9572 16.846 13.2701 17.8805 14.2242C18.9369 15.1986 19.6501 16.744 19.6501 19.0001C19.6501 19.4972 19.2472 19.9001 18.7501 19.9001C18.253 19.9001 17.8501 19.4972 17.8501 19.0001C17.8501 17.1419 17.2766 16.1159 16.6601 15.5474C16.0219 14.9587 15.2259 14.7572 14.6324 14.7572H5.36774C4.77428 14.7572 3.97832 14.9587 3.34006 15.5474C2.72365 16.1159 2.1501 17.1419 2.1501 19.0001C2.1501 19.4972 1.74715 19.9001 1.2501 19.9001C0.753041 19.9001 0.350098 19.4972 0.350098 19.0001C0.350098 16.744 1.06331 15.1986 2.11969 14.2242Z"/>
</svg>
