<svg viewBox="0 0 19 18" fill="white" xmlns="http://www.w3.org/2000/svg">
<path fill-rule="evenodd" clip-rule="evenodd" d="M9.49927 18C14.4698 18 18.4993 13.9706 18.4993 9C18.4993 4.02944 14.4698 0 9.49927 0C4.5287 0 0.499268 4.02944 0.499268 9C0.499268 13.9706 4.5287 18 9.49927 18ZM10.2493 13C10.2493 13.4142 9.91348 13.75 9.49927 13.75C9.08505 13.75 8.74927 13.4142 8.74927 13V6.81066L6.5296 9.03033C6.2367 9.32322 5.76183 9.32322 5.46894 9.03033C5.17604 8.73744 5.17604 8.26256 5.46894 7.96967L8.96894 4.46967C9.26183 4.17678 9.7367 4.17678 10.0296 4.46967L13.5296 7.96967C13.8225 8.26256 13.8225 8.73744 13.5296 9.03033C13.2367 9.32322 12.7618 9.32322 12.4689 9.03033L10.2493 6.81066V13Z"/>
</svg>
