<svg width="19" height="24" viewBox="0 0 19 24" fill="white" xmlns="http://www.w3.org/2000/svg">
<path fill-rule="evenodd" clip-rule="evenodd" d="M9.7332 1.89998C9.26562 1.89998 8.88658 2.27902 8.88658 2.7466V3.27096H10.5798V2.7466C10.5798 2.27902 10.2008 1.89998 9.7332 1.89998ZM12.3798 3.27096V2.7466C12.3798 1.28491 11.1949 0.0999756 9.7332 0.0999756C8.27151 0.0999756 7.08658 1.28491 7.08658 2.7466V3.27096H4.96526C2.27831 3.27096 0.100098 5.44916 0.100098 8.13612V18.7032C0.100098 21.3902 2.27831 23.5684 4.96526 23.5684H14.0021C16.6891 23.5684 18.8673 21.3902 18.8673 18.7032V8.13612C18.8673 5.44917 16.6891 3.27096 14.0021 3.27096H12.3798ZM4.96526 5.07096C3.27242 5.07096 1.9001 6.44328 1.9001 8.13612V18.7032C1.9001 20.396 3.27242 21.7684 4.96526 21.7684H14.0021C15.695 21.7684 17.0673 20.3961 17.0673 18.7032V8.13612C17.0673 6.44328 15.6949 5.07096 14.0021 5.07096H4.96526ZM4.59141 8.92744C4.59141 8.43038 4.99435 8.02744 5.49141 8.02744H13.476C13.973 8.02744 14.376 8.43038 14.376 8.92744C14.376 9.42449 13.973 9.82744 13.476 9.82744H5.49141C4.99435 9.82744 4.59141 9.42449 4.59141 8.92744ZM4.59141 12.6269C4.59141 12.1299 4.99435 11.7269 5.49141 11.7269H13.476C13.973 11.7269 14.376 12.1299 14.376 12.6269C14.376 13.124 13.973 13.5269 13.476 13.5269H5.49141C4.99435 13.5269 4.59141 13.124 4.59141 12.6269ZM6.08851 16.3264C6.08851 15.8293 6.49146 15.4264 6.98851 15.4264H11.9789C12.4759 15.4264 12.8789 15.8293 12.8789 16.3264C12.8789 16.8235 12.4759 17.2264 11.9789 17.2264H6.98851C6.49146 17.2264 6.08851 16.8235 6.08851 16.3264Z"/>
</svg>
