<svg width="26" height="20" viewBox="0 0 26 20" fill="white" xmlns="http://www.w3.org/2000/svg">
<path fill-rule="evenodd" clip-rule="evenodd" d="M8.33289 1.83394C6.69038 1.83394 5.32445 3.20151 5.32445 4.93145C5.32445 6.66139 6.69038 8.02897 8.33289 8.02897C9.9754 8.02897 11.3413 6.66139 11.3413 4.93145C11.3413 3.20151 9.9754 1.83394 8.33289 1.83394ZM3.52445 4.93145C3.52445 2.24585 5.65825 0.0339355 8.33289 0.0339355C11.0075 0.0339355 13.1413 2.24585 13.1413 4.93145C13.1413 7.61705 11.0075 9.82897 8.33289 9.82897C5.65825 9.82897 3.52445 7.61705 3.52445 4.93145ZM17.9538 5.1636C16.9746 5.1636 16.1444 5.98259 16.1444 7.03831C16.1444 8.09404 16.9746 8.91303 17.9538 8.91303C18.9329 8.91303 19.7631 8.09404 19.7631 7.03831C19.7631 5.98259 18.9329 5.1636 17.9538 5.1636ZM14.3444 7.03831C14.3444 5.02917 15.9403 3.3636 17.9538 3.3636C19.9673 3.3636 21.5631 5.02917 21.5631 7.03831C21.5631 9.04746 19.9673 10.713 17.9538 10.713C15.9403 10.713 14.3444 9.04746 14.3444 7.03831ZM3.28832 16.2304C2.32911 17.1158 1.96107 18.158 1.90029 18.7797C1.85192 19.2744 1.41168 19.6362 0.91698 19.5879C0.422283 19.5395 0.0604607 19.0992 0.108828 18.6046C0.210894 17.5606 0.771115 16.1043 2.0674 14.9078C3.38349 13.6929 5.4027 12.7952 8.33289 12.7952C11.2631 12.7952 13.2823 13.6929 14.5984 14.9078C15.8947 16.1043 16.4549 17.5606 16.557 18.6045C16.6053 19.0992 16.2435 19.5395 15.7488 19.5879C15.2541 19.6362 14.8139 19.2744 14.7655 18.7797C14.7047 18.158 14.3367 17.1158 13.3775 16.2304C12.4381 15.3632 10.8745 14.5952 8.33289 14.5952C5.79126 14.5952 4.22773 15.3632 3.28832 16.2304ZM16.7697 13.6952C16.7697 13.1982 17.1727 12.7952 17.6697 12.7952C20.5999 12.7952 22.6191 13.6929 23.9352 14.9078C25.2315 16.1043 25.7917 17.5606 25.8938 18.6045C25.9422 19.0992 25.5804 19.5395 25.0857 19.5879C24.591 19.6362 24.1507 19.2744 24.1024 18.7797C24.0416 18.158 23.6735 17.1158 22.7143 16.2304C21.7749 15.3632 20.2114 14.5952 17.6697 14.5952C17.1727 14.5952 16.7697 14.1923 16.7697 13.6952Z"/>
</svg>
