<svg width="20" height="22" viewBox="0 0 20 22" fill="white" xmlns="http://www.w3.org/2000/svg">
<path fill-rule="evenodd" clip-rule="evenodd" d="M10.507 2.36309C10.1738 2.27897 9.82496 2.27897 9.49177 2.36309C9.1541 2.44833 8.81752 2.66955 7.76324 3.41939L3.5388 6.42393C2.76233 6.97618 2.52666 7.15435 2.36099 7.36484C2.19759 7.57245 2.07536 7.80937 2.00088 8.06286C1.92537 8.31986 1.91678 8.61518 1.91678 9.56801V15.6649C1.91678 16.5125 1.91747 17.0941 1.9543 17.5448C1.99027 17.9851 2.05617 18.2207 2.14281 18.3907C2.34164 18.781 2.6589 19.0982 3.04913 19.297C3.21918 19.3837 3.45478 19.4496 3.89502 19.4856C4.34577 19.5224 4.92735 19.5231 5.77496 19.5231H14.2238C15.0714 19.5231 15.653 19.5224 16.1038 19.4856C16.544 19.4496 16.7796 19.3837 16.9497 19.297C17.3399 19.0982 17.6572 18.781 17.856 18.3907C17.9426 18.2207 18.0085 17.9851 18.0445 17.5448C18.0813 17.0941 18.082 16.5125 18.082 15.6649V9.56801C18.082 8.61518 18.0734 8.31986 17.9979 8.06286C17.9234 7.80937 17.8012 7.57245 17.6378 7.36484C17.4721 7.15435 17.2365 6.97618 16.46 6.42393L12.2356 3.41939C11.1813 2.66955 10.8447 2.44833 10.507 2.36309ZM9.05117 0.617845C9.67356 0.460718 10.3252 0.460718 10.9476 0.617845C11.6557 0.796593 12.2838 1.24393 13.1446 1.85701C13.1887 1.88843 13.2334 1.92028 13.2788 1.95255L17.5033 4.9571C17.536 4.98042 17.5684 5.0034 17.6003 5.02608C18.2389 5.47977 18.706 5.81167 19.0523 6.25159C19.3575 6.63939 19.5858 7.08194 19.7249 7.55544C19.8827 8.09256 19.8824 8.66562 19.8821 9.44893C19.882 9.48809 19.882 9.52777 19.882 9.56801V15.7026C19.882 16.5033 19.882 17.1587 19.8385 17.6914C19.7935 18.243 19.6973 18.7418 19.4598 19.2079C19.0884 19.9368 18.4958 20.5295 17.7669 20.9009C17.3008 21.1383 16.8019 21.2345 16.2504 21.2796C15.7176 21.3231 15.0623 21.3231 14.2615 21.3231H5.7373C4.93653 21.3231 4.28116 21.3231 3.74844 21.2796C3.19689 21.2345 2.69804 21.1383 2.23194 20.9009C1.50303 20.5295 0.910402 19.9368 0.539002 19.2079C0.301515 18.7418 0.205345 18.243 0.160281 17.6914C0.116756 17.1587 0.116764 16.5033 0.116775 15.7025L0.116775 9.56801C0.116775 9.52777 0.116756 9.48808 0.116736 9.44892C0.116352 8.66561 0.11607 8.09256 0.273882 7.55544C0.413003 7.08194 0.641316 6.63939 0.946542 6.25159C1.29278 5.81168 1.75993 5.47977 2.39847 5.02609C2.4304 5.00341 2.46275 4.98042 2.49554 4.9571L6.71998 1.95255C6.76536 1.92028 6.81008 1.88843 6.85419 1.85701C7.71502 1.24393 8.34313 0.796593 9.05117 0.617845Z"/>
</svg>
